HIERARCHY
ROOT root     
{
	OFFSET 0.0000 0.0000 0.0000
	CHANNELS 6 Xposition Yposition Zposition Zrotation Yrotation Xrotation
	JOINT pelvis   
	{
		OFFSET 0.0000 0.0000 0.0000
		CHANNELS 3 Zrotation Yrotation Xrotation
		JOINT thorax   
		{
			OFFSET 0.0000 23.0750 -5.0000
			CHANNELS 3 Zrotation Yrotation Xrotation
			JOINT rclavicle
			{
				OFFSET 0.0000 28.0009 0.0000
				CHANNELS 3 Zrotation Yrotation Xrotation
				JOINT rhumerus 
				{
					OFFSET -18.5725 5.5939 0.0000
					CHANNELS 3 Zrotation Yrotation Xrotation
					JOINT rradius  
					{
						OFFSET -24.8459 0.0000 0.0000
						CHANNELS 3 Zrotation Yrotation Xrotation
						JOINT rhand    
						{
							OFFSET -24.5477 0.0000 0.0000
							CHANNELS 3 Zrotation Yrotation Xrotation
							End Site
							{
								OFFSET -8.1826 0.0000 0.0000
							}
						}
					}
				}
			}
			JOINT lclavicle
			{
				OFFSET 0.0000 28.0009 0.0000
				CHANNELS 3 Zrotation Yrotation Xrotation
				JOINT lhumerus 
				{
					OFFSET 18.5725 5.5939 0.0000
					CHANNELS 3 Zrotation Yrotation Xrotation
					JOINT lradius  
					{
						OFFSET 24.8459 0.0000 0.0000
						CHANNELS 3 Zrotation Yrotation Xrotation
						JOINT lhand    
						{
							OFFSET 24.5477 0.0000 0.0000
							CHANNELS 3 Zrotation Yrotation Xrotation
							End Site
							{
								OFFSET 8.1826 0.0000 0.0000
							}
						}
					}
				}
			}
			JOINT head     
			{
				OFFSET 0.0000 35.2030 0.0000
				CHANNELS 3 Zrotation Yrotation Xrotation
				End Site
				{
					OFFSET 0.0000 11.7343 0.0000
				}
			}
		}
		JOINT rfemur   
		{
			OFFSET -8.2817 0.0000 0.0000
			CHANNELS 3 Zrotation Yrotation Xrotation
			JOINT rtibia   
			{
				OFFSET 0.0000 -43.3627 0.0000
				CHANNELS 3 Zrotation Yrotation Xrotation
				JOINT rfoot    
				{
					OFFSET 0.0000 -38.2947 0.0000
					CHANNELS 3 Zrotation Yrotation Xrotation
					JOINT rtoes    
					{
						OFFSET 0.0000 0.0000 16.6054
						CHANNELS 3 Zrotation Yrotation Xrotation
						End Site
						{
							OFFSET 0.0000 0.0000 5.5351
						}
					}
				}
			}
		}
		JOINT lfemur   
		{
			OFFSET 8.2817 0.0000 0.0000
			CHANNELS 3 Zrotation Yrotation Xrotation
			JOINT ltibia   
			{
				OFFSET 0.0000 -43.3627 0.0000
				CHANNELS 3 Zrotation Yrotation Xrotation
				JOINT lfoot    
				{
					OFFSET 0.0000 -38.2947 0.0000
					CHANNELS 3 Zrotation Yrotation Xrotation
					JOINT ltoes    
					{
						OFFSET 0.0000 0.0000 16.6054
						CHANNELS 3 Zrotation Yrotation Xrotation
						End Site
						{
							OFFSET 0.0000 0.0000 5.5351
						}
					}
				}
			}
		}
	}
}
MOTION
Frames: 7
Frame Time: .0333333
-10.426 76.808 -5.1897 -110.514 82.1989 -89.5703 0 -0 0 5.23975 -7.90695 21.4881 25.7575 -11.2894 -3.63511e-05 57.6076 -13.5818 0.484908 -1.45113e-06 82.1498 -1.66506e-06 -13.2401 -0.580001 0.067303 -18.6951 14.0033 -0.000114503 -41.599 -3.0831 -5.44345 -180 -70.6926 180 0.883707 2.59563 0.0199998 5.72423 4.33559 -12.7334 23.1009 -16.5293 -64.2237 -0 -0 42.0925 -3.24003e-06 11.5375 5.68245 1.15788 6.76892e-07 -64.4455 -5.11671 13.3042 -24.7614 -0 -0 57.9266 5.70043e-05 9.32842 -21.0628 -3.3786 4.57725e-05 -44.9931 
-9.0727 76.627 -5.3394 -109.561 82.3844 -88.6354 0 -0 0 5.31664 -7.79053 21.3655 25.6834 -11.3519 -9.28879e-05 57.5679 -13.6293 0.334534 -2.08489e-06 82.2607 -2.38743e-06 -13.1164 -0.451199 0.0518981 -18.8395 14.2544 6.61196e-05 -41.5153 -2.38378 -5.66671 -180 -70.6073 180 0.780597 2.53961 0.0173 5.54029 4.41554 -12.8098 22.3895 -15.8811 -63.8503 -0 -0 42.4778 1.51831e-05 11.7913 6.13838 1.27872 1.85845e-06 -62.506 -5.03415 13.1519 -23.6388 -0 -0 57.7557 4.01808e-05 9.13426 -20.4276 -3.21191 2.79672e-05 -47.7965 
-7.7152 76.423 -5.499 -108.565 82.593 -87.6677 0 -0 0 5.36861 -7.67484 21.253 25.6099 -11.3704 7.27065e-05 57.5224 -13.646 0.190861 -2.11287e-06 82.3569 -2.41539e-06 -13.0056 -0.313098 0.0357014 -18.9964 14.4731 6.34839e-05 -41.4749 -1.61619 -5.86056 -180 -70.6125 180 0.657795 2.4954 0.0142998 5.32534 4.5197 -12.9336 21.4136 -15.1079 -63.4811 -0 -0 43.2495 8.19536e-06 11.7188 6.37888 1.32024 2.45624e-05 -59.5117 -4.99409 12.9788 -22.5688 -0 -0 57.7039 2.34183e-05 8.8746 -19.6931 -3.01205 1.10191e-05 -50.6398 
-6.3544 76.202 -5.6644 -107.619 82.7973 -86.7681 0 -0 0 5.4158 -7.57416 21.1683 25.5455 -11.3388 6.70488e-05 57.4629 -13.6207 0.0512562 -0 82.4293 -0 -12.9156 -0.174595 0.0197995 -19.1677 14.6537 -4.9015e-05 -41.4831 -0.791037 -6.02743 -180 -70.7068 180 0.529 2.46285 0.0113998 5.08099 4.64464 -13.1048 20.2695 -14.2616 -63.1363 -0 -0 44.3762 8.88671e-06 11.3452 6.35609 1.2724 3.39856e-06 -55.454 -4.9757 12.7887 -21.5586 -0 -0 57.7912 -1.28355e-05 8.57193 -18.8653 -2.79027 4.79818e-05 -53.284 
-4.9905 75.97 -5.8329 -106.904 82.9859 -86.1295 0 -0 0 5.47232 -7.50234 21.129 25.4998 -11.2526 6.7989e-06 57.3785 -13.5436 -0.0889891 -0 82.4693 -0 -12.8578 -0.0450999 0.00509997 -19.3565 14.7822 0.000158456 -41.5492 0.0833023 -6.17188 -180 -70.8838 180 0.4104 2.44556 0.00879981 4.81442 4.7837 -13.3182 19.051 -13.406 -62.8211 -0 -0 45.8106 8.02834e-06 10.7163 6.03821 1.1404 4.44844e-06 -50.4624 -4.96288 12.5845 -20.6119 -0 -0 58.0354 2.64201e-05 8.26571 -17.9528 -2.56383 3.20283e-06 -55.4965 
-3.6277 75.736 -5.9985 -106.608 83.1374 -85.9355 0 -0 0 5.56811 -7.47322 21.14 25.4776 -11.1148 6.04081e-05 57.2617 -13.3995 -0.230744 -1.73419e-06 82.4799 -1.52029e-06 -12.8393 0.0663004 -0.00749976 -19.5648 14.8665 -1.44192e-05 -41.6843 0.974182 -6.28511 -180 -71.1623 180 0.321603 2.44946 0.00689992 4.53332 4.92696 -13.5678 17.8521 -12.5881 -62.5332 -0 -0 47.4711 4.24957e-06 9.86962 5.43141 0.943517 -5.38248e-06 -44.9087 -4.92685 12.3695 -19.7536 -0 -0 58.4641 -1.89767e-05 8.00336 -16.9804 -2.35142 1.54055e-05 -56.9855 
-2.2701 75.509 -6.1593 -106.929 83.2321 -86.3845 0 -0 0 5.71078 -7.49544 21.2073 25.49 -10.9284 -7.13166e-05 57.1062 -13.1748 -0.377459 -1.51357e-06 82.4522 -1.72746e-06 -12.866 0.150602 -0.0169998 -19.7898 14.8962 -4.27177e-05 -41.901 1.86625 -6.36712 -180 -71.5413 180 0.280697 2.48292 0.00610003 4.25388 5.06192 -13.8436 16.7397 -11.8578 -62.2629 -0 -0 49.2705 3.37222e-06 8.85436 4.56819 0.710805 -5.72041e-07 -39.3386 -4.85613 12.1432 -18.9985 -0 -0 59.0943 -1.88129e-06 7.84407 -15.977 -2.17172 -1.40581e-06 -57.5304 
